<?xml version="1.0" standalone="no"?>
<!DOCTYPE svg PUBLIC "-//W3C//DTD SVG 20010904//EN"
 "http://www.w3.org/TR/2001/REC-SVG-20010904/DTD/svg10.dtd">
<svg version="1.0" xmlns="http://www.w3.org/2000/svg"
 width="350.000000pt" height="160.000000pt" viewBox="0 0 350.000000 160.000000"
 preserveAspectRatio="xMidYMid meet">

<g transform="translate(0.000000,160.000000) scale(0.100000,-0.100000)"
fill="#000000" stroke="none">
<path d="M80 1395 l0 -205 30 0 30 0 0 170 0 170 370 0 370 0 0 35 0 35 -400
0 -400 0 0 -205z"/>
<path d="M2122 1339 c-91 -45 -183 -187 -205 -315 -6 -35 -14 -64 -18 -64 -4
0 -24 -17 -45 -37 l-37 -38 -10 30 c-32 98 -146 145 -209 88 -10 -9 -18 -22
-18 -30 0 -7 -6 -13 -12 -13 -7 0 -37 -40 -67 -88 -58 -92 -89 -132 -104 -132
-11 0 -6 24 27 115 42 114 32 180 -30 210 -20 10 -34 23 -34 34 0 41 -61 55
-84 18 -14 -22 3 -51 33 -55 11 -2 21 -9 21 -15 0 -7 -20 -62 -45 -122 -46
-111 -91 -180 -116 -180 -23 0 -12 92 26 211 36 115 35 127 -15 122 -16 -2
-26 -11 -30 -25 -4 -17 -9 -20 -20 -13 -42 27 -132 -2 -186 -59 -19 -21 -31
-27 -36 -18 -8 14 -3 20 -62 -75 -101 -165 -191 -248 -268 -248 -181 0 -195
266 -28 515 69 103 162 159 223 136 33 -13 47 -40 47 -91 0 -73 -45 -130 -102
-130 -32 0 -39 -25 -9 -33 73 -19 159 113 132 203 -17 56 -44 75 -105 74 -130
-1 -289 -144 -347 -311 -24 -70 -26 -198 -3 -251 43 -105 162 -158 260 -117
46 19 137 113 193 198 24 37 44 67 45 67 1 0 0 -30 -2 -67 -3 -58 -1 -72 18
-95 17 -22 30 -28 59 -28 32 0 45 7 77 40 22 22 51 63 67 91 l27 52 0 -75 c0
-87 13 -109 55 -90 38 18 79 83 125 200 50 125 57 137 76 121 19 -15 18 -39
-5 -97 -25 -63 -35 -130 -26 -181 5 -32 12 -42 31 -47 33 -8 50 9 125 120 39
59 58 80 53 61 -5 -16 -8 -58 -8 -92 1 -123 69 -160 170 -91 39 27 84 93 84
125 0 13 4 23 10 23 5 0 25 14 43 30 19 17 36 30 38 30 2 0 5 -12 6 -27 7
-124 34 -193 76 -193 13 0 31 8 40 18 13 15 77 151 89 192 3 8 7 -17 11 -57 7
-82 18 -109 49 -119 17 -5 28 1 50 25 15 17 30 31 32 31 2 0 7 -16 10 -35 5
-26 13 -36 32 -41 28 -7 55 12 85 61 l19 30 0 -47 c0 -27 4 -48 8 -48 4 0 35
52 67 116 59 114 126 207 137 188 3 -5 -5 -54 -18 -109 -13 -55 -24 -114 -24
-132 0 -32 21 -63 44 -63 16 0 47 34 75 80 l21 35 0 -28 c0 -35 24 -83 45 -91
60 -23 122 16 175 110 18 30 33 54 34 54 1 0 1 -24 -1 -52 -7 -99 35 -134 90
-76 30 33 97 154 97 177 0 27 -19 6 -46 -51 -38 -80 -80 -138 -100 -138 -25 0
-13 92 26 213 17 54 29 105 26 113 -3 8 -19 14 -36 14 -23 0 -30 -4 -30 -19 0
-23 -16 -36 -25 -21 -9 14 -70 12 -108 -4 -18 -7 -50 -30 -71 -50 -21 -20 -42
-36 -45 -36 -3 0 -28 -46 -56 -102 -73 -149 -100 -142 -50 15 36 112 41 150
20 170 -44 44 -96 2 -175 -142 -24 -44 -46 -79 -47 -77 -2 2 15 54 38 116 45
119 44 129 -7 130 -26 0 -30 -9 -39 -86 -13 -103 -93 -249 -126 -229 -19 12
-4 112 31 204 27 68 30 85 19 92 -17 11 -59 12 -59 2 0 -28 -35 -166 -51 -203
-27 -61 -48 -83 -66 -69 -20 17 -16 77 11 170 26 88 24 99 -20 99 -24 0 -34
-17 -34 -61 0 -18 -5 -29 -14 -29 -8 0 -27 -33 -45 -78 -39 -96 -83 -153 -103
-134 -16 16 -15 108 3 200 l11 63 62 28 c70 32 140 103 180 183 31 62 33 101
6 128 -26 26 -54 25 -108 -1z m102 -31 c20 -58 -109 -237 -193 -266 l-34 -12
6 35 c9 58 84 205 123 242 45 42 84 42 98 1z m-886 -211 c2 -11 -3 -17 -17
-17 -23 0 -35 15 -26 31 10 15 39 6 43 -14z m-208 -82 c38 -46 -101 -285 -165
-285 -56 0 -54 42 11 171 54 109 119 156 154 114z m1835 -1 c19 -20 16 -35
-36 -140 -45 -94 -96 -147 -137 -142 -44 5 -40 45 12 152 62 127 118 173 161
130z m-1265 -14 c23 -12 40 -61 40 -116 0 -33 -5 -46 -22 -58 -31 -22 -71 -20
-94 5 -18 20 -18 21 5 64 26 50 23 75 -11 75 l-23 1 24 19 c26 22 53 25 81 10z
m-11 -207 c34 4 39 2 34 -12 -23 -60 -75 -91 -112 -65 -15 11 -21 26 -21 53 0
48 6 54 36 34 17 -10 37 -14 63 -10z"/>
<path d="M666 578 c-10 -31 -15 -278 -7 -278 6 0 13 31 17 70 l7 70 43 -3 c24
-1 44 3 46 8 2 6 -18 11 -44 13 l-48 3 0 55 0 56 43 -4 c23 -2 44 2 47 7 3 6
-17 11 -48 13 -36 2 -53 -1 -56 -10z"/>
<path d="M908 571 c-46 -37 -61 -138 -32 -211 43 -106 166 -86 194 30 27 111
-17 200 -98 200 -24 0 -49 -8 -64 -19z m112 -19 c44 -36 43 -171 -2 -219 -69
-74 -156 31 -128 154 17 78 77 108 130 65z"/>
<path d="M1148 583 c-29 -7 -21 -21 14 -25 l33 -3 0 -124 c0 -95 3 -125 13
-129 11 -3 13 12 12 69 -1 41 -2 102 -1 136 1 59 2 62 25 60 14 -1 25 3 26 8
0 10 -92 17 -122 8z"/>
<path d="M1411 574 c-32 -23 -51 -73 -51 -134 0 -93 41 -150 108 -150 88 0
138 148 85 253 -23 46 -97 62 -142 31z m94 -10 c42 -17 60 -130 31 -199 -43
-102 -156 -49 -156 73 0 97 55 153 125 126z"/>
<path d="M1707 579 c-25 -15 -57 -86 -57 -129 0 -93 40 -149 113 -157 72 -8
87 6 87 82 0 60 -2 65 -24 71 -29 7 -69 -4 -61 -17 4 -5 20 -9 36 -9 30 0 30
0 27 -52 l-3 -53 -43 -3 c-35 -3 -47 1 -71 25 -69 69 -36 233 47 233 15 0 38
-7 50 -16 32 -22 43 -7 13 17 -26 21 -85 25 -114 8z"/>
<path d="M1944 577 c-2 -7 -3 -71 -2 -142 2 -92 7 -130 16 -133 7 -2 11 4 10
15 0 10 0 40 0 66 2 44 4 48 24 45 16 -2 31 -20 50 -58 15 -30 29 -59 31 -64
2 -5 8 -7 14 -5 7 3 0 26 -18 64 -34 71 -35 75 -9 75 21 0 40 27 40 59 0 36
-22 70 -53 81 -41 14 -97 13 -103 -3z m118 -34 c21 -19 24 -56 5 -71 -7 -6
-32 -14 -55 -18 -42 -6 -42 -6 -42 23 0 17 -3 45 -7 63 l-6 33 44 -7 c24 -4
51 -14 61 -23z"/>
<path d="M2456 578 c-9 -26 -14 -278 -7 -278 9 0 21 59 21 107 0 32 0 33 45
30 24 -1 45 3 47 8 2 6 -19 11 -45 13 l-48 3 3 52 3 52 40 0 c61 0 59 20 -3
23 -36 2 -53 -1 -56 -10z"/>
<path d="M2843 578 c-12 -20 -84 -219 -90 -250 -7 -39 11 -35 22 5 10 32 10
32 75 32 l65 0 5 -33 c6 -41 26 -42 22 -1 -3 39 -70 247 -82 254 -5 3 -12 0
-17 -7z m37 -94 c29 -94 28 -94 -31 -94 -37 0 -50 4 -47 13 3 6 15 42 27 80
13 37 24 67 26 67 2 0 13 -30 25 -66z"/>
<path d="M2235 553 c-3 -15 -25 -77 -47 -136 -22 -59 -38 -110 -35 -113 11
-11 24 6 30 36 6 30 7 30 71 30 l65 0 7 -35 c3 -19 10 -35 15 -35 17 0 7 56
-29 165 -39 116 -63 143 -77 88z m54 -81 c11 -37 21 -71 21 -75 0 -4 -22 -7
-50 -7 -27 0 -50 3 -50 7 0 17 45 143 51 143 3 0 16 -31 28 -68z"/>
<path d="M2675 570 c-14 -22 -20 -249 -7 -262 19 -19 23 10 20 148 -2 86 -6
124 -13 114z"/>
<path d="M3370 270 l0 -200 -365 0 -365 0 0 -35 0 -35 395 0 395 0 0 235 0
235 -30 0 -30 0 0 -200z"/>
</g>
</svg>
